<mxfile host="app.diagrams.net" agent="Mozilla/5.0 (Windows NT 10.0; Win64; x64) AppleWebKit/537.36 (KHTML, like Gecko) Chrome/135.0.0.0 Safari/537.36 Edg/135.0.0.0" version="26.2.14">
  <diagram name="Page-1" id="74e2e168-ea6b-b213-b513-2b3c1d86103e">
    <mxGraphModel dx="1426" dy="757" grid="1" gridSize="10" guides="1" tooltips="1" connect="1" arrows="1" fold="1" page="1" pageScale="1" pageWidth="1100" pageHeight="850" background="none" math="0" shadow="0">
      <root>
        <mxCell id="0" />
        <mxCell id="1" parent="0" />
        <mxCell id="mUaRbev2njwtiGA8Xi6T-1" value="&lt;font style=&quot;font-size: 18px;&quot;&gt;传入Token&lt;/font&gt;" style="rounded=0;whiteSpace=wrap;html=1;" vertex="1" parent="1">
          <mxGeometry x="230" y="60" width="90" height="40" as="geometry" />
        </mxCell>
        <mxCell id="mUaRbev2njwtiGA8Xi6T-3" value="" style="endArrow=classic;html=1;rounded=0;exitX=0.5;exitY=1;exitDx=0;exitDy=0;entryX=0;entryY=0.5;entryDx=0;entryDy=0;" edge="1" parent="1" source="mUaRbev2njwtiGA8Xi6T-1" target="mUaRbev2njwtiGA8Xi6T-4">
          <mxGeometry width="50" height="50" relative="1" as="geometry">
            <mxPoint x="310" y="160" as="sourcePoint" />
            <mxPoint x="275" y="180" as="targetPoint" />
          </mxGeometry>
        </mxCell>
        <mxCell id="mUaRbev2njwtiGA8Xi6T-44" style="edgeStyle=orthogonalEdgeStyle;rounded=0;orthogonalLoop=1;jettySize=auto;html=1;entryX=0.5;entryY=0;entryDx=0;entryDy=0;" edge="1" parent="1" source="mUaRbev2njwtiGA8Xi6T-4" target="mUaRbev2njwtiGA8Xi6T-45">
          <mxGeometry relative="1" as="geometry">
            <mxPoint x="276.25" y="370" as="targetPoint" />
          </mxGeometry>
        </mxCell>
        <mxCell id="mUaRbev2njwtiGA8Xi6T-4" value="&lt;span style=&quot;font-size: 16px;&quot;&gt;转换为String&lt;/span&gt;" style="rhombus;whiteSpace=wrap;html=1;direction=south;" vertex="1" parent="1">
          <mxGeometry x="212.5" y="150" width="127.5" height="110" as="geometry" />
        </mxCell>
        <mxCell id="mUaRbev2njwtiGA8Xi6T-42" style="edgeStyle=orthogonalEdgeStyle;rounded=0;orthogonalLoop=1;jettySize=auto;html=1;entryX=1;entryY=0.5;entryDx=0;entryDy=0;" edge="1" parent="1" source="mUaRbev2njwtiGA8Xi6T-41" target="mUaRbev2njwtiGA8Xi6T-45">
          <mxGeometry relative="1" as="geometry">
            <mxPoint x="376.25" y="455" as="targetPoint" />
          </mxGeometry>
        </mxCell>
        <mxCell id="mUaRbev2njwtiGA8Xi6T-41" value="&lt;span style=&quot;font-size: 16px;&quot;&gt;当前时间戳&lt;/span&gt;" style="rhombus;whiteSpace=wrap;html=1;direction=south;" vertex="1" parent="1">
          <mxGeometry x="486" y="325.63" width="127.5" height="110" as="geometry" />
        </mxCell>
        <mxCell id="mUaRbev2njwtiGA8Xi6T-43" value="&lt;font style=&quot;font-size: 14px;&quot;&gt;相同的Base64编码&lt;/font&gt;" style="text;html=1;align=center;verticalAlign=middle;resizable=0;points=[];autosize=1;strokeColor=none;fillColor=none;" vertex="1" parent="1">
          <mxGeometry x="346" y="340" width="140" height="30" as="geometry" />
        </mxCell>
        <mxCell id="mUaRbev2njwtiGA8Xi6T-48" style="edgeStyle=orthogonalEdgeStyle;rounded=0;orthogonalLoop=1;jettySize=auto;html=1;entryX=0.5;entryY=0;entryDx=0;entryDy=0;" edge="1" parent="1" source="mUaRbev2njwtiGA8Xi6T-45" target="mUaRbev2njwtiGA8Xi6T-47">
          <mxGeometry relative="1" as="geometry" />
        </mxCell>
        <mxCell id="mUaRbev2njwtiGA8Xi6T-45" value="&lt;font style=&quot;font-size: 18px;&quot;&gt;字符串拼接&lt;/font&gt;" style="ellipse;whiteSpace=wrap;html=1;aspect=fixed;" vertex="1" parent="1">
          <mxGeometry x="225.62" y="330" width="101.25" height="101.25" as="geometry" />
        </mxCell>
        <mxCell id="mUaRbev2njwtiGA8Xi6T-51" style="edgeStyle=orthogonalEdgeStyle;rounded=0;orthogonalLoop=1;jettySize=auto;html=1;entryX=0.5;entryY=0;entryDx=0;entryDy=0;entryPerimeter=0;" edge="1" parent="1" source="mUaRbev2njwtiGA8Xi6T-47" target="mUaRbev2njwtiGA8Xi6T-56">
          <mxGeometry relative="1" as="geometry">
            <mxPoint x="276.25" y="600" as="targetPoint" />
          </mxGeometry>
        </mxCell>
        <mxCell id="mUaRbev2njwtiGA8Xi6T-47" value="&lt;span style=&quot;font-size: 18px;&quot;&gt;拼接结果&lt;/span&gt;" style="rounded=0;whiteSpace=wrap;html=1;" vertex="1" parent="1">
          <mxGeometry x="231.25" y="485" width="90" height="40" as="geometry" />
        </mxCell>
        <mxCell id="mUaRbev2njwtiGA8Xi6T-52" value="&lt;font style=&quot;font-size: 14px;&quot;&gt;进行Base64编码&lt;/font&gt;" style="text;html=1;align=center;verticalAlign=middle;resizable=0;points=[];autosize=1;strokeColor=none;fillColor=none;" vertex="1" parent="1">
          <mxGeometry x="280" y="270" width="130" height="30" as="geometry" />
        </mxCell>
        <mxCell id="mUaRbev2njwtiGA8Xi6T-54" value="&lt;font style=&quot;font-size: 14px;&quot;&gt;字符串反转&lt;/font&gt;" style="text;html=1;align=center;verticalAlign=middle;resizable=0;points=[];autosize=1;strokeColor=none;fillColor=none;" vertex="1" parent="1">
          <mxGeometry x="280" y="440" width="90" height="30" as="geometry" />
        </mxCell>
        <mxCell id="mUaRbev2njwtiGA8Xi6T-55" value="&lt;font style=&quot;font-size: 14px;&quot;&gt;字符替换&lt;/font&gt;" style="text;html=1;align=center;verticalAlign=middle;resizable=0;points=[];autosize=1;strokeColor=none;fillColor=none;" vertex="1" parent="1">
          <mxGeometry x="280" y="550" width="80" height="30" as="geometry" />
        </mxCell>
        <mxCell id="mUaRbev2njwtiGA8Xi6T-56" value="&lt;span style=&quot;font-size: 18px;&quot;&gt;加密结果&lt;/span&gt;" style="rounded=0;whiteSpace=wrap;html=1;" vertex="1" parent="1">
          <mxGeometry x="231.25" y="600" width="90" height="40" as="geometry" />
        </mxCell>
      </root>
    </mxGraphModel>
  </diagram>
</mxfile>
